<svg aria-hidden="true" style="position: absolute; width: 0; height: 0; overflow: hidden;" version="1.1" xmlns="http://www.w3.org/2000/svg" xmlns:xlink="http://www.w3.org/1999/xlink">
    <defs>
        <symbol id="icon-arrow-dropdown" viewBox="0 0 64 32">
            <path d="M58.24 1.92l3.84 5.12-30.080 22.56-30.080-22.56 3.84-5.12 26.24 19.68z"></path>
        </symbol>
        <symbol id="icon-outbound-link" viewBox="0 0 32 32">
            <path d="M24.64 14.88v13.44c0 0.619-0.501 1.122-1.12 1.122h-19.842c-0.618 0-1.12-0.502-1.12-1.122v-19.84c0-0.619 0.502-1.12 1.12-1.12h13.442c0.706 0 1.28-0.573 1.28-1.28 0-0.706-0.574-1.28-1.28-1.28h-13.92c-1.768 0-3.2 1.434-3.2 3.2v20.8c0 1.768 1.432 3.2 3.2 3.2h20.8c1.766 0 3.2-1.432 3.2-3.2v-13.92c0-0.706-0.574-1.28-1.28-1.28-0.709 0-1.28 0.574-1.28 1.28zM32 1.6v10.72c0 0.707-0.574 1.28-1.28 1.28-0.709 0-1.28-0.573-1.28-1.28v-8.066l-18.738 18.827c-0.504 0.506-1.325 0.502-1.824-0.010h-0.002c-0.488-0.501-0.483-1.301 0.010-1.797l18.627-18.715h-7.835c-0.706 0-1.278-0.573-1.278-1.28 0-0.706 0.573-1.28 1.278-1.28h10.722c0.883 0 1.6 0.715 1.6 1.6z"></path>
        </symbol>
    </defs>
</svg>
